<svg width="40" height="43" viewBox="0 0 40 43" fill="none" xmlns="http://www.w3.org/2000/svg">
<path fill-rule="evenodd" clip-rule="evenodd" d="M13.1104 24.41C13.6114 23.5962 14.6987 23.3054 15.539 23.7604L6.23944 38.8665C5.87773 38.3707 5.26986 38.0454 4.58097 38.0454C3.79544 38.0454 3.11525 38.4684 2.78525 39.0847L1.06863 38.1553C0.0300047 37.5929 -0.310018 36.3216 0.309163 35.3158L5.12781 27.4885C5.74699 26.4827 7.0909 26.1232 8.12952 26.6856L10.8145 28.1394L13.1104 24.41Z" fill="#34A5E4"/>
<path d="M5.87666 39.9287C5.87666 40.5327 5.34053 41.0992 4.58138 41.0992C3.82223 41.0992 3.2861 40.5327 3.2861 39.9287C3.2861 39.3247 3.82223 38.7583 4.58138 38.7583C5.34053 38.7583 5.87666 39.3247 5.87666 39.9287Z" stroke="#132450" stroke-width="1.42571"/>
<path d="M14.1191 23.4498L16.9874 18.0698C17.0829 17.8907 17.2033 17.7262 17.3452 17.5811L21.7492 13.0753C22.3276 12.4835 23.1202 12.1499 23.9478 12.1499V12.1499C24.7291 12.1499 25.481 12.4473 26.0509 12.9818L30.2688 16.9375C30.5423 17.194 30.8784 17.3741 31.2435 17.4597L36.7107 18.7415" stroke="#132450" stroke-width="4.99" stroke-linecap="round"/>
<ellipse cx="23.8217" cy="4.9536" rx="4.95163" ry="4.9536" fill="#132450"/>
<rect width="9.03248" height="15.9003" rx="4.51624" transform="matrix(0.996651 -0.0817757 0.092884 0.995677 18.9434 11.9131)" fill="#132450"/>
<rect width="3.96431" height="18.2975" rx="1.98216" transform="matrix(0.89852 -0.438933 0.485544 0.874212 23.5264 26.2749)" fill="#132450"/>
<rect width="3.96431" height="18.2975" rx="1.98216" transform="matrix(-0.89852 -0.438933 -0.485544 0.874212 25.5615 26.2749)" fill="#132450"/>
</svg>
